<svg width="103.439990234375px" height="88.439990234375px" xmlns="http://www.w3.org/2000/svg" viewBox="198.2800048828125 30.7800048828125 103.439990234375 88.439990234375" style="background: none;" preserveAspectRatio="xMidYMid"><defs><linearGradient id="editing-outline-gradient" x1="-0.41354545764260087" x2="1.4135454576426008" y1="0.09326335692419985" y2="0.9067366430758002"><stop offset="0" stop-color="#ee4208"></stop><stop offset="1" stop-color="#4139ff"></stop></linearGradient><filter id="editing-outline" x="-100%" y="-100%" width="300%" height="300%"><feMorphology in="SourceGraphic" operator="dilate" radius="1" result="outline"></feMorphology><feComposite operator="out" in="outline" in2="SourceAlpha"></feComposite></filter></defs><g filter="url(#editing-outline)"><g transform="translate(220.5449921488762, 88.875)"><path d="M9.09 0L3.58 0L3.58-22.21L0.32-22.21L0.32-27.49L12.35-27.49L12.35-22.21L9.09-22.21L9.09 0ZM19.90 0.26L19.90 0.26Q12.90 0.26 12.90-7.01L12.90-7.01L12.90-16.42L12.90-16.42Q12.90-19.74 14.77-21.71L14.77-21.71L14.77-21.71Q16.64-23.68 19.90-23.68L19.90-23.68L19.90-23.68Q23.17-23.68 25.04-21.71L25.04-21.71L25.04-21.71Q26.91-19.74 26.91-16.42L26.91-16.42L26.91-7.01L26.91-7.01Q26.91 0.26 19.90 0.26L19.90 0.26ZM19.90-4.06L19.90-4.06Q20.58-4.06 20.90-4.54L20.90-4.54L20.90-4.54Q21.22-5.02 21.22-5.86L21.22-5.86L21.22-17.31L21.22-17.31Q21.22-19.36 19.90-19.36L19.90-19.36L19.90-19.36Q18.59-19.36 18.59-17.31L18.59-17.31L18.59-5.86L18.59-5.86Q18.59-5.02 18.91-4.54L18.91-4.54L18.91-4.54Q19.23-4.06 19.90-4.06L19.90-4.06ZM29.09 0L29.09-27.49L36.67-27.49L36.67-27.49Q39.62-27.49 41.09-25.86L41.09-25.86L41.09-25.86Q42.56-24.22 42.59-21.02L42.59-21.02L42.66-8.16L42.66-8.16Q42.69-4.10 41.25-2.05L41.25-2.05L41.25-2.05Q39.81 0 36.48 0L36.48 0L29.09 0ZM34.62-4.86L35.58-4.86L35.58-4.86Q37.09-4.86 37.09-6.34L37.09-6.34L37.09-20.51L37.09-20.51Q37.09-21.44 36.94-21.90L36.94-21.90L36.94-21.90Q36.80-22.37 36.42-22.53L36.42-22.53L36.42-22.53Q36.03-22.69 35.23-22.69L35.23-22.69L34.62-22.69L34.62-4.86ZM51.58 0.26L51.58 0.26Q44.58 0.26 44.58-7.01L44.58-7.01L44.58-16.42L44.58-16.42Q44.58-19.74 46.45-21.71L46.45-21.71L46.45-21.71Q48.32-23.68 51.58-23.68L51.58-23.68L51.58-23.68Q54.85-23.68 56.72-21.71L56.72-21.71L56.72-21.71Q58.59-19.74 58.59-16.42L58.59-16.42L58.59-7.01L58.59-7.01Q58.59 0.26 51.58 0.26L51.58 0.26ZM51.58-4.06L51.58-4.06Q52.26-4.06 52.58-4.54L52.58-4.54L52.58-4.54Q52.90-5.02 52.90-5.86L52.90-5.86L52.90-17.31L52.90-17.31Q52.90-19.36 51.58-19.36L51.58-19.36L51.58-19.36Q50.27-19.36 50.27-17.31L50.27-17.31L50.27-5.86L50.27-5.86Q50.27-5.02 50.59-4.54L50.59-4.54L50.59-4.54Q50.91-4.06 51.58-4.06L51.58-4.06Z" fill="url(#editing-outline-gradient)"></path></g></g><style>text {
  font-size: 64px;
  font-family: Arial Black;
  dominant-baseline: central;
  text-anchor: middle;
}</style></svg>