<?xml version="1.0" encoding="utf-8"?>
<svg width="102px" height="85px" viewBox="166.37 5.08 119.845 58.41" style="background: none;" preserveAspectRatio="xMidYMid" xmlns="http://www.w3.org/2000/svg">
  <defs>
    <linearGradient id="editing-outline-gradient" x1="-0.41354545764260087" x2="1.4135454576426008" y1="0.09326335692419985" y2="0.9067366430758002">
      <stop offset="0" stop-color="#ee4208"/>
      <stop offset="1" stop-color="#4139ff"/>
    </linearGradient>
    <filter id="editing-outline" x="-100%" y="-100%" width="300%" height="300%">
      <feMorphology in="SourceGraphic" operator="dilate" radius="1" result="outline"/>
      <feComposite operator="out" in="outline" in2="SourceAlpha"/>
    </filter>
  </defs>
  <g filter="url(#editing-outline)" transform="matrix(1, 0, 0, 1, -23.707533, -41.058697)">
    <g transform="translate(191.08999955654144, 102.74499702453613)">
      <path d="M18.18 0L7.17 0L7.17-44.42L0.64-44.42L0.64-54.98L24.70-54.98L24.70-44.42L18.18-44.42L18.18 0ZM39.81 0.51L39.81 0.51Q25.79 0.51 25.79-14.02L25.79-14.02L25.79-32.83L25.79-32.83Q25.79-39.49 29.54-43.42L29.54-43.42L29.54-43.42Q33.28-47.36 39.81-47.36L39.81-47.36L39.81-47.36Q46.34-47.36 50.08-43.42L50.08-43.42L50.08-43.42Q53.82-39.49 53.82-32.83L53.82-32.83L53.82-14.02L53.82-14.02Q53.82 0.51 39.81 0.51L39.81 0.51ZM39.81-8.13L39.81-8.13Q41.15-8.13 41.79-9.09L41.79-9.09L41.79-9.09Q42.43-10.05 42.43-11.71L42.43-11.71L42.43-34.62L42.43-34.62Q42.43-38.72 39.81-38.72L39.81-38.72L39.81-38.72Q37.18-38.72 37.18-34.62L37.18-34.62L37.18-11.71L37.18-11.71Q37.18-10.05 37.82-9.09L37.82-9.09L37.82-9.09Q38.46-8.13 39.81-8.13L39.81-8.13ZM58.18 0L58.18-54.98L73.34-54.98L73.34-54.98Q79.23-54.98 82.18-51.71L82.18-51.71L82.18-51.71Q85.12-48.45 85.18-42.05L85.18-42.05L85.31-16.32L85.31-16.32Q85.38-8.19 82.50-4.10L82.50-4.10L82.50-4.10Q79.62 0 72.96 0L72.96 0L58.18 0ZM69.25-9.73L71.17-9.73L71.17-9.73Q74.18-9.73 74.18-12.67L74.18-12.67L74.18-41.02L74.18-41.02Q74.18-42.88 73.89-43.81L73.89-43.81L73.89-43.81Q73.60-44.74 72.83-45.06L72.83-45.06L72.83-45.06Q72.06-45.38 70.46-45.38L70.46-45.38L69.25-45.38L69.25-9.73ZM103.17 0.51L103.17 0.51Q89.15 0.51 89.15-14.02L89.15-14.02L89.15-32.83L89.15-32.83Q89.15-39.49 92.90-43.42L92.90-43.42L92.90-43.42Q96.64-47.36 103.17-47.36L103.17-47.36L103.17-47.36Q109.70-47.36 113.44-43.42L113.44-43.42L113.44-43.42Q117.18-39.49 117.18-32.83L117.18-32.83L117.18-14.02L117.18-14.02Q117.18 0.51 103.17 0.51L103.17 0.51ZM103.17-8.13L103.17-8.13Q104.51-8.13 105.15-9.09L105.15-9.09L105.15-9.09Q105.79-10.05 105.79-11.71L105.79-11.71L105.79-34.62L105.79-34.62Q105.79-38.72 103.17-38.72L103.17-38.72L103.17-38.72Q100.54-38.72 100.54-34.62L100.54-34.62L100.54-11.71L100.54-11.71Q100.54-10.05 101.18-9.09L101.18-9.09L101.18-9.09Q101.82-8.13 103.17-8.13L103.17-8.13Z" fill="url(#editing-outline-gradient)"/>
    </g>
  </g>
  <style>text {
  font-size: 64px;
  font-family: Arial Black;
  dominant-baseline: central;
  text-anchor: middle;
}</style>
</svg>